<?xml version="1.0" encoding="utf-8"?><svg xmlns="http://www.w3.org/2000/svg" xmlns:xlink="http://www.w3.org/1999/xlink" width="1536" height="967" preserveAspectRatio="xMidYMid" viewBox="0 0 1536 967" style="z-index:1;margin-right:-1.6px;display:block;animation-play-state:paused" ><g transform="translate(768,483.5) scale(1,1) translate(-768,-483.5)" style="transform:matrix(1, 0, 0, 1, 0, 0);animation-play-state:paused" ><linearGradient id="lg-0.01384089803714561" x1="0" x2="1" y1="0" y2="0" style="animation-play-state:paused" ><stop stop-color="#222222" offset="0" style="animation-play-state:paused" ></stop>

  
<stop stop-color="#00d8ff" offset="1" style="animation-play-state:paused" ></stop></linearGradient>
<path d="M 0 0 L 0 942.535 Q 384 863.474 768 836.809 T 1536 651.635 L 1536 0 Z" fill="url(#lg-0.01384089803714561)" opacity="0.4" style="opacity:0.4;animation-play-state:paused" ></path>
<path d="M 0 0 L 0 952.418 Q 384 821.27 768 789.438 T 1536 654.344 L 1536 0 Z" fill="url(#lg-0.01384089803714561)" opacity="0.4" style="opacity:0.4;animation-play-state:paused" ></path>
<path d="M 0 0 L 0 949.439 Q 384 798.57 768 777.156 T 1536 669.571 L 1536 0 Z" fill="url(#lg-0.01384089803714561)" opacity="0.4" style="opacity:0.4;animation-play-state:paused" ></path>
<path d="M 0 0 L 0 919.373 Q 384 815.389 768 776.364 T 1536 621.745 L 1536 0 Z" fill="url(#lg-0.01384089803714561)" opacity="0.4" style="opacity:0.4;animation-play-state:paused" ></path>
<path d="M 0 0 L 0 933.212 Q 384 840.06 768 808.701 T 1536 686.186 L 1536 0 Z" fill="url(#lg-0.01384089803714561)" opacity="0.4" style="opacity:0.4;animation-play-state:paused" ></path></g></svg>